<?xml version="1.0" encoding="UTF-8" standalone="no"?>
<!-- Created with Inkscape (http://www.inkscape.org/) -->
<svg xmlns:dc="http://purl.org/dc/elements/1.1/" xmlns:cc="http://creativecommons.org/ns#" xmlns:rdf="http://www.w3.org/1999/02/22-rdf-syntax-ns#" xmlns:svg="http://www.w3.org/2000/svg" xmlns="http://www.w3.org/2000/svg" xmlns:sodipodi="http://sodipodi.sourceforge.net/DTD/sodipodi-0.dtd" xmlns:inkscape="http://www.inkscape.org/namespaces/inkscape" width="175" height="57" id="svg2" sodipodi:version="0.32" inkscape:version="0.46" version="1.0" sodipodi:docname="logo bni.svg" inkscape:output_extension="org.inkscape.output.svg.inkscape" style="display: inline;">
  <defs id="defs4">
    <inkscape:perspective sodipodi:type="inkscape:persp3d" inkscape:vp_x="0 : 526.18109 : 1" inkscape:vp_y="0 : 1000 : 0" inkscape:vp_z="744.09448 : 526.18109 : 1" inkscape:persp3d-origin="372.04724 : 350.78739 : 1" id="perspective10"/>
    <inkscape:perspective id="perspective2390" inkscape:persp3d-origin="372.04724 : 350.78739 : 1" inkscape:vp_z="744.09448 : 526.18109 : 1" inkscape:vp_y="0 : 1000 : 0" inkscape:vp_x="0 : 526.18109 : 1" sodipodi:type="inkscape:persp3d"/>
  </defs>
  <sodipodi:namedview id="base" pagecolor="#ffffff" bordercolor="#666666" borderopacity="1.0" gridtolerance="10000" guidetolerance="10" objecttolerance="10" inkscape:pageopacity="0.0" inkscape:pageshadow="2" inkscape:zoom="1.01" inkscape:cx="17.826014" inkscape:cy="84.534186" inkscape:document-units="px" inkscape:current-layer="layer3" showgrid="false" inkscape:window-width="1024" inkscape:window-height="712" inkscape:window-x="0" inkscape:window-y="22" showguides="false" inkscape:guide-bbox="true">
    <sodipodi:guide orientation="0,1" position="671.42857,48.571429" id="guide3189"/>
    <sodipodi:guide orientation="1,0" position="17.142857,557.14286" id="guide3191"/>
    <sodipodi:guide orientation="1,0" position="500,457.14286" id="guide3193"/>
    <sodipodi:guide orientation="0,1" position="153.22581,353.22581" id="guide3210"/>
    <sodipodi:guide orientation="0,1" position="167.74194,169.35484" id="guide3212"/>
    <sodipodi:guide orientation="1,0" position="162.90323,138.70968" id="guide3214"/>
    <sodipodi:guide orientation="1,0" position="185.48387,116.12903" id="guide3216"/>
    <sodipodi:guide orientation="0,1" position="275.80645,140.32258" id="guide3218"/>
    <sodipodi:guide orientation="1,0" position="211.57895,205.26316" id="guide3220"/>
    <sodipodi:guide orientation="0,1" position="279.03226,208.06452" id="guide3222"/>
    <sodipodi:guide orientation="1,0" position="238.61598,543.54318" id="guide3224"/>
    <sodipodi:guide orientation="0,1" position="238.94737,177.89474" id="guide3226"/>
    <sodipodi:guide orientation="1,0" position="262.25792,241.24367" id="guide3228"/>
    <sodipodi:guide orientation="1,0" position="285.48387,324.19355" id="guide3232"/>
    <sodipodi:guide orientation="0,1" position="290.52632,220.52632" id="guide3234"/>
    <sodipodi:guide orientation="1,0" position="372.58065,112.90323" id="guide3236"/>
    <sodipodi:guide orientation="0,1" position="420.96774,80.645161" id="guide3238"/>
    <sodipodi:guide orientation="1,0" position="169.35484,417.74194" id="guide3246"/>
    <sodipodi:guide orientation="1,0" position="191.93548,362.90323" id="guide3252"/>
    <sodipodi:guide orientation="0,1" position="361.29032,67.741935" id="guide3254"/>
    <sodipodi:guide orientation="0,1" position="425.80645,158.06452" id="guide3256"/>
    <sodipodi:guide orientation="0,1" position="975.53831,328.65729" id="guide3258"/>
    <sodipodi:guide orientation="0,1" position="506.45161,461.29032" id="guide3260"/>
    <sodipodi:guide orientation="1,0" position="248.78049,391.46341" id="guide3268"/>
    <sodipodi:guide orientation="1,0" position="296.1039,429.87013" id="guide3276"/>
    <sodipodi:guide orientation="1,0" position="222.15071,538.71548" id="guide3280"/>
    <sodipodi:guide orientation="0,1" position="553.0341,379.99889" id="guide3282"/>
    <sodipodi:guide orientation="0,1" position="569.99834,191.69587" id="guide3284"/>
    <sodipodi:guide orientation="0,1" position="481.63265,186.39456" id="guide3286"/>
    <sodipodi:guide orientation="1,0" position="464.82007,320.62406" id="guide3288"/>
    <sodipodi:guide orientation="0,1" position="474.14966,421.76871" id="guide3290"/>
    <sodipodi:guide orientation="1,0" position="408.83809,449.55226" id="guide3292"/>
    <sodipodi:guide orientation="1,0" position="325,368.60465" id="guide3294"/>
    <sodipodi:guide orientation="0,1" position="439.37372,340.98115" id="guide3296"/>
    <sodipodi:guide orientation="0,1" position="447.85584,402.0524" id="guide3302"/>
    <sodipodi:guide orientation="0,1" position="493.36493,183.88626" id="guide3365"/>
    <sodipodi:guide orientation="0,1" position="525.5295,198.72482" id="guide3367"/>
    <sodipodi:guide orientation="0,1" position="795.87834,289.6832" id="guide3221"/>
    <sodipodi:guide orientation="0,1" position="801.13166,102.06455" id="guide3223"/>
    <sodipodi:guide orientation="0,1" position="999.01383,320.83212" id="guide3233"/>
    <sodipodi:guide orientation="0,1" position="816.42645,63.905584" id="guide3239"/>
    <inkscape:grid type="xygrid" id="grid2447" visible="true" enabled="true"/>
    <sodipodi:guide orientation="0,1" position="355.05222,528.92338" id="guide2449"/>
    <sodipodi:guide orientation="1,0" position="1055.364,541.15914" id="guide2451"/>
    <sodipodi:guide orientation="1,0" position="1426.5038,261.24924" id="guide2459"/>
    <sodipodi:guide orientation="0,1" position="1444.1277,489.32397" id="guide2463"/>
    <sodipodi:guide orientation="1,0" position="1390.2192,450.96595" id="guide2465"/>
    <sodipodi:guide orientation="1,0" position="1479.3756,393.94726" id="guide2467"/>
    <sodipodi:guide orientation="1,0" position="1522.9172,469.62661" id="guide2469"/>
    <sodipodi:guide orientation="0,1" position="1194.2822,413.64463" id="guide2471"/>
    <sodipodi:guide orientation="0,1" position="1498.0363,23.844176" id="guide3245"/>
    <sodipodi:guide orientation="1,0" position="1170.4381,453.03935" id="guide3247"/>
    <sodipodi:guide orientation="1,0" position="1147.6306,279.9099" id="guide3251"/>
    <sodipodi:guide orientation="1,0" position="1183.9152,164.83583" id="guide3255"/>
    <sodipodi:guide orientation="1,0" position="1090.6119,273.68968" id="guide3257"/>
    <sodipodi:guide orientation="1,0" position="1597.2377,490.9318" id="guide3259"/>
    <sodipodi:guide orientation="1,0" position="1744.9275,481.35931" id="guide3261"/>
    <sodipodi:guide orientation="1,0" position="1634.1602,366.48948" id="guide3263"/>
    <sodipodi:guide orientation="1,0" position="1705.2701,359.65198" id="guide3265"/>
    <sodipodi:guide orientation="1,0" position="620.84411,448.53936" id="guide3269"/>
    <sodipodi:guide orientation="1,0" position="659.13406,343.24201" id="guide3271"/>
    <sodipodi:guide orientation="1,0" position="737.08144,340.50701" id="guide3273"/>
    <sodipodi:guide orientation="1,0" position="887.50623,326.83203" id="guide3275"/>
    <sodipodi:guide orientation="1,0" position="934.00116,299.48207" id="guide3277"/>
    <sodipodi:guide orientation="1,0" position="959.98363,350.0795" id="guide3279"/>
    <sodipodi:guide orientation="1,0" position="1006.4786,255.72213" id="guide3281"/>
    <sodipodi:guide orientation="1,0" position="839.6438,207.8597" id="guide3285"/>
    <sodipodi:guide orientation="1,0" position="825.96882,343.24201" id="guide3287"/>
    <sodipodi:guide orientation="0,1" position="845.11379,477.25682" id="guide3289"/>
  </sodipodi:namedview>
  <metadata id="metadata7">
    <rdf:RDF>
      <cc:Work rdf:about="">
        <dc:format>image/svg+xml</dc:format>
        <dc:type rdf:resource="http://purl.org/dc/dcmitype/StillImage"/>
      </cc:Work>
    </rdf:RDF>
  </metadata>
  <g inkscape:groupmode="layer" id="layer3" style="display: inline;">
    <path style="fill: rgb(241, 90, 35); fill-opacity: 1; fill-rule: evenodd; stroke: none; stroke-width: 1px; stroke-linecap: butt; stroke-linejoin: miter; stroke-opacity: 1;" d="M 2.639645,22.755996 L 17.053175,40.938099 L 2.639645,52.881776 L 2.639645,22.755996 L 2.639645,22.755996 z" id="path3242"/>
    <path style="fill: rgb(241, 90, 35); fill-opacity: 1; fill-rule: evenodd; stroke: none; stroke-width: 1px; stroke-linecap: butt; stroke-linejoin: miter; stroke-opacity: 1;" d="M 8.4406001,52.881776 L 19.286065,43.808956 L 26.782193,52.881776 L 8.4406001,52.881776 z" id="path3244"/>
    <path style="fill: rgb(241, 90, 35); fill-opacity: 1; fill-rule: evenodd; stroke: none; stroke-width: 1px; stroke-linecap: butt; stroke-linejoin: miter; stroke-opacity: 1;" d="M 2.639645,13.026979 L 6.4010417,17.784991 L 21.86648,37.110286 L 26.877876,33.119627 C 26.877876,33.119627 22.717521,28.221639 19.924032,22.755996 C 14.462432,12.070028 18.329111,5.4169256 18.329111,5.4169256 L 2.639645,5.4169256 L 2.639645,13.026979 z" id="path3248" sodipodi:nodetypes="ccccsccc"/>
    <path style="fill: rgb(241, 90, 35); fill-opacity: 1; fill-rule: evenodd; stroke: none; stroke-width: 1px; stroke-linecap: butt; stroke-linejoin: miter; stroke-opacity: 1;" d="M 24.070828,40.093628 L 29.174574,35.878 C 29.174574,35.878 34.049012,42.294496 39.701056,43.808956 C 47.107699,45.793561 50.387026,40.938099 50.387026,40.938099 L 50.387026,52.881776 L 34.118831,52.881776 L 37.78715,49.710162 C 37.78715,49.710162 35.873245,50.986099 31.192409,47.743866 C 28.429705,45.830245 24.070828,40.093628 24.070828,40.093628 z" id="path3250" sodipodi:nodetypes="ccsccccsc"/>
    <path style="fill: rgb(241, 90, 35); fill-opacity: 1; fill-rule: evenodd; stroke: none; stroke-width: 1px; stroke-linecap: butt; stroke-linejoin: miter; stroke-opacity: 1;" d="M 24.540039,5.3821241 C 24.540039,5.3821241 22.911869,7.6001049 24.070828,13.026979 C 25.309597,18.827567 30.236192,24.966841 30.224738,24.829396 C 30.224738,24.829396 30.541474,18.733372 34.118831,15.156015 C 41.744012,7.5308337 50.387026,12.070028 50.387026,12.070028 L 50.387026,5.4169256 L 24.540039,5.3821241 z" id="path3262" sodipodi:nodetypes="cscsccc"/>
    <path style="fill: rgb(241, 90, 35); fill-opacity: 1; fill-rule: evenodd; stroke: none; stroke-width: 1px; stroke-linecap: butt; stroke-linejoin: miter; stroke-opacity: 1;" d="M 50.387026,20.108539 C 50.387026,20.108539 45.564883,15.978126 41.372471,15.978126 C 36.009474,15.978126 33.082131,20.608193 33.082131,23.966811 C 33.082131,28.858882 35.430281,31.577164 37.78715,33.934033 C 41.174118,37.321003 45.294614,40.97395 50.387026,38.033845 C 50.387026,32.469346 50.387026,20.108539 50.387026,20.108539 z" id="path3298" sodipodi:nodetypes="ccsscc"/>
    <path style="fill: rgb(0, 94, 106); fill-opacity: 1; fill-rule: evenodd; stroke: none; stroke-width: 1px; stroke-linecap: butt; stroke-linejoin: miter; stroke-opacity: 1;" d="M 105.30425,5.879728 L 116.68337,5.879728 C 116.68337,5.879728 126.76382,21.142966 131.71787,27.449097 C 136.67192,33.755229 142.00445,40.938099 142.00445,40.938099 C 142.00445,40.938099 142.00445,20.108539 142.00445,9.2979154 C 142.00445,7.9314015 138.41645,5.879728 138.41645,5.879728 L 151.5383,5.879728 C 151.5383,5.879728 147.23268,7.6486712 147.23268,9.2979154 C 147.23268,22.755996 147.23268,55.326938 147.23268,55.326938 C 147.23268,55.326938 143.10134,53.035968 138.41645,47.592107 C 133.15267,41.475564 114.42805,16.781476 114.42805,16.781476 C 114.42805,16.781476 114.42805,40.093628 114.42805,48.766005 C 114.42805,50.404057 118.01605,52.881776 118.01605,52.881776 L 105.30425,52.881776 C 105.30425,52.881776 108.78974,50.384011 108.78974,48.766005 C 108.78974,37.110286 108.78974,20.108539 108.78974,9.2979154 C 108.78974,7.845405 105.30425,5.879728 105.30425,5.879728 z" id="path3249" sodipodi:nodetypes="cczccccscscsccssc"/>
    <path style="fill: rgb(0, 94, 106); fill-opacity: 1; fill-rule: evenodd; stroke: none; stroke-width: 1px; stroke-linecap: butt; stroke-linejoin: miter; stroke-opacity: 1;" d="M 158.88749,5.879728 L 173.49181,5.879728 C 173.49181,5.879728 169.57029,7.7372705 169.57029,9.2979154 C 169.57029,20.108539 169.57029,38.033845 169.57029,48.766005 C 169.57029,50.471471 173.49181,52.881776 173.49181,52.881776 L 158.88749,52.881776 C 158.88749,52.881776 162.53858,50.416551 162.53858,48.766005 C 162.53858,35.878 162.53858,20.108539 162.53858,9.2979154 C 162.53858,7.7974835 158.88749,5.879728 158.88749,5.879728 z" id="path3267" sodipodi:nodetypes="ccssccssc"/>
    <path id="path3283" style="fill: rgb(0, 94, 106); fill-opacity: 1; fill-rule: evenodd; stroke: none; stroke-width: 1px; stroke-linecap: butt; stroke-linejoin: miter; stroke-opacity: 1;" d="M 62.336709,5.879728 C 62.336709,5.879728 66.123016,7.7676194 66.123016,9.2979154 C 66.123016,20.108539 66.123016,35.878 66.123016,48.766005 C 66.123016,50.443746 62.336709,52.881776 62.336709,52.881776 L 62.336709,52.881776 C 62.336709,52.881776 81.252103,52.881776 83.972742,52.881776 C 85.324993,52.881776 100.47022,50.405227 100.47022,38.728903 C 100.47022,27.052582 88.70562,25.959251 88.70562,25.959251 C 88.70562,25.959251 95.872555,23.966811 95.872555,15.978126 C 95.872555,7.3672046 85.324993,5.879728 83.972742,5.879728 C 81.162555,5.879728 62.336709,5.879728 62.336709,5.879728 z M 73.830852,25.185459 L 73.830852,10.491177 C 73.830852,10.491177 80.102352,10.491177 82.620492,10.491177 C 83.972742,10.491177 88.70562,12.070028 88.70562,17.927774 C 88.70562,22.755996 83.972742,25.185459 82.620492,25.185459 C 79.554744,25.185459 73.830852,25.185459 73.830852,25.185459 z M 73.830852,29.039416 C 73.830852,29.039416 82.620492,29.039416 83.972742,29.039416 C 85.324993,29.039416 93.303277,31.111756 93.303277,38.033845 C 93.303277,45.091156 85.324993,47.592107 83.972742,47.592107 C 82.620492,47.592107 73.830852,47.592107 73.830852,47.592107 L 73.830852,29.039416 z"/>
  </g>
</svg>